<?xml version="1.0" standalone="yes"?>

<svg version="1.1" height="150px" viewBox="0.0 0.0 179.36745406824147 180.95538057742783" fill="none" stroke="none" stroke-linecap="square" stroke-miterlimit="10" xmlns="http://www.w3.org/2000/svg" xmlns:xlink="http://www.w3.org/1999/xlink"><desc>A 3x3 grid containing 4 ones and 5 zeros.</desc><clipPath id="p.0"><path d="m0 0l179.36745 0l0 180.95538l-179.36745 0l0 -180.95538z" clip-rule="nonzero"></path></clipPath><g clip-path="url(#p.0)"><path fill="#000000" fill-opacity="0.0" d="m0 0l179.36745 0l0 180.95538l-179.36745 0z" fill-rule="evenodd"></path><path fill="#ead1dc" d="m6.4819555 6.7206693l57.007874 0l0 57.007874l-57.007874 0z" fill-rule="evenodd"></path><path stroke="#000000" stroke-width="1.0" stroke-linejoin="round" stroke-linecap="butt" d="m6.4819555 6.7206693l57.007874 0l0 57.007874l-57.007874 0z" fill-rule="evenodd"></path><path fill="#000000" d="m38.07196 35.774605q0 0.96875 -0.203125 1.78125q-0.1875 0.796875 -0.578125 1.375q-0.390625 0.578125 -0.984375 0.890625q-0.59375 0.3125 -1.390625 0.3125q-0.671875 0 -1.234375 -0.25q-0.5625 -0.25 -0.96875 -0.78125q-0.390625 -0.546875 -0.609375 -1.375q-0.2031269 -0.828125 -0.2031269 -1.953125q0 -0.96875 0.1875019 -1.78125q0.203125 -0.8125 0.59375 -1.375q0.390625 -0.578125 0.984375 -0.890625q0.59375 -0.328125 1.390625 -0.328125q0.671875 0 1.234375 0.265625q0.5625 0.25 0.953125 0.796875q0.40625 0.53125 0.609375 1.359375q0.21875 0.828125 0.21875 1.953125zm-1.140625 0.046875q0 -0.234375 -0.015625 -0.453125q-0.015625 -0.21875 -0.03125 -0.421875l-3.609375 2.671875q0.109375 0.34375 0.25 0.640625q0.15625 0.28125 0.359375 0.484375q0.21875 0.203125 0.484375 0.3125q0.265625 0.109375 0.609375 0.109375q0.453125 0 0.8125 -0.203125q0.359375 -0.21875 0.609375 -0.640625q0.265625 -0.421875 0.390625 -1.046875q0.140625 -0.640625 0.140625 -1.453125zm-3.890625 -0.078125q0 0.1875 0 0.390625q0 0.203125 0.03125 0.390625l3.59375 -2.65625q-0.09375 -0.328125 -0.25 -0.59375q-0.140625 -0.28125 -0.359375 -0.484375q-0.203125 -0.203125 -0.46875 -0.3125q-0.265625 -0.109375 -0.609375 -0.109375q-0.4375 0 -0.796875 0.21875q-0.359375 0.21875 -0.625 0.640625q-0.25 0.421875 -0.390625 1.0625q-0.125 0.625 -0.125 1.453125z" fill-rule="nonzero"></path><path fill="#ead1dc" d="m62.481956 6.7206693l57.007874 0l0 57.007874l-57.007874 0z" fill-rule="evenodd"></path><path stroke="#000000" stroke-width="1.0" stroke-linejoin="round" stroke-linecap="butt" d="m62.481956 6.7206693l57.007874 0l0 57.007874l-57.007874 0z" fill-rule="evenodd"></path><path fill="#000000" d="m93.806335 40.024605l-5.34375 0l0 -1.046875l2.1875 0l0 -6.21875l-2.03125 1.109375l-0.421875 -0.96875l2.703125 -1.421875l1.015625 0l0 7.5l1.890625 0l0 1.046875z" fill-rule="nonzero"></path><path fill="#ead1dc" d="m118.48196 6.7206693l57.007866 0l0 57.007874l-57.007866 0z" fill-rule="evenodd"></path><path stroke="#000000" stroke-width="1.0" stroke-linejoin="round" stroke-linecap="butt" d="m118.48196 6.7206693l57.007866 0l0 57.007874l-57.007866 0z" fill-rule="evenodd"></path><path fill="#000000" d="m150.07196 35.774605q0 0.96875 -0.203125 1.78125q-0.1875 0.796875 -0.578125 1.375q-0.390625 0.578125 -0.984375 0.890625q-0.59375 0.3125 -1.390625 0.3125q-0.671875 0 -1.234375 -0.25q-0.5625 -0.25 -0.96875 -0.78125q-0.390625 -0.546875 -0.609375 -1.375q-0.203125 -0.828125 -0.203125 -1.953125q0 -0.96875 0.1875 -1.78125q0.203125 -0.8125 0.59375 -1.375q0.390625 -0.578125 0.984375 -0.890625q0.59375 -0.328125 1.390625 -0.328125q0.671875 0 1.234375 0.265625q0.5625 0.25 0.953125 0.796875q0.40625 0.53125 0.609375 1.359375q0.21875 0.828125 0.21875 1.953125zm-1.140625 0.046875q0 -0.234375 -0.015625 -0.453125q-0.015625 -0.21875 -0.03125 -0.421875l-3.609375 2.671875q0.109375 0.34375 0.25 0.640625q0.15625 0.28125 0.359375 0.484375q0.21875 0.203125 0.484375 0.3125q0.265625 0.109375 0.609375 0.109375q0.453125 0 0.8125 -0.203125q0.359375 -0.21875 0.609375 -0.640625q0.265625 -0.421875 0.390625 -1.046875q0.140625 -0.640625 0.140625 -1.453125zm-3.890625 -0.078125q0 0.1875 0 0.390625q0 0.203125 0.03125 0.390625l3.59375 -2.65625q-0.09375 -0.328125 -0.25 -0.59375q-0.140625 -0.28125 -0.359375 -0.484375q-0.203125 -0.203125 -0.46875 -0.3125q-0.265625 -0.109375 -0.609375 -0.109375q-0.4375 0 -0.796875 0.21875q-0.359375 0.21875 -0.625 0.640625q-0.25 0.421875 -0.390625 1.0625q-0.125 0.625 -0.125 1.453125z" fill-rule="nonzero"></path><path fill="#ead1dc" d="m6.4819555 62.72067l57.007874 0l0 57.007877l-57.007874 0z" fill-rule="evenodd"></path><path stroke="#000000" stroke-width="1.0" stroke-linejoin="round" stroke-linecap="butt" d="m6.4819555 62.72067l57.007874 0l0 57.007877l-57.007874 0z" fill-rule="evenodd"></path><path fill="#000000" d="m37.806335 96.024605l-5.34375 0l0 -1.046875l2.1875 0l0 -6.21875l-2.03125 1.109375l-0.421875 -0.96875l2.703125 -1.421875l1.015625 0l0 7.5l1.890625 0l0 1.046875z" fill-rule="nonzero"></path><path fill="#ead1dc" d="m62.481956 62.72067l57.007874 0l0 57.007877l-57.007874 0z" fill-rule="evenodd"></path><path stroke="#000000" stroke-width="1.0" stroke-linejoin="round" stroke-linecap="butt" d="m62.481956 62.72067l57.007874 0l0 57.007877l-57.007874 0z" fill-rule="evenodd"></path><path fill="#000000" d="m94.07196 91.774605q0 0.96875 -0.203125 1.78125q-0.1875 0.796875 -0.578125 1.375q-0.390625 0.578125 -0.984375 0.890625q-0.59375 0.3125 -1.390625 0.3125q-0.671875 0 -1.234375 -0.25q-0.5625 -0.25 -0.96875 -0.78125q-0.390625 -0.546875 -0.609375 -1.375q-0.203125 -0.828125 -0.203125 -1.953125q0 -0.96875 0.1875 -1.78125q0.203125 -0.8125 0.59375 -1.375q0.390625 -0.578125 0.984375 -0.890625q0.59375 -0.328125 1.390625 -0.328125q0.671875 0 1.234375 0.265625q0.5625 0.25 0.953125 0.796875q0.40625 0.53125 0.609375 1.359375q0.21875 0.828125 0.21875 1.953125zm-1.140625 0.046875q0 -0.234375 -0.015625 -0.453125q-0.015625 -0.21875 -0.03125 -0.421875l-3.609375 2.671875q0.109375 0.34375 0.25 0.640625q0.15625 0.28125 0.359375 0.484375q0.21875 0.203125 0.484375 0.3125q0.265625 0.109375 0.609375 0.109375q0.453125 0 0.8125 -0.203125q0.359375 -0.21875 0.609375 -0.640625q0.265625 -0.421875 0.390625 -1.046875q0.140625 -0.640625 0.140625 -1.453125zm-3.890625 -0.078125q0 0.1875 0 0.390625q0 0.203125 0.03125 0.390625l3.59375 -2.65625q-0.09375 -0.328125 -0.25 -0.59375q-0.140625 -0.28125 -0.359375 -0.484375q-0.203125 -0.203125 -0.46875 -0.3125q-0.265625 -0.109375 -0.609375 -0.109375q-0.4375 0 -0.796875 0.21875q-0.359375 0.21875 -0.625 0.640625q-0.25 0.421875 -0.390625 1.0625q-0.125 0.625 -0.125 1.453125z" fill-rule="nonzero"></path><path fill="#ead1dc" d="m118.48196 62.72067l57.007866 0l0 57.007877l-57.007866 0z" fill-rule="evenodd"></path><path stroke="#000000" stroke-width="1.0" stroke-linejoin="round" stroke-linecap="butt" d="m118.48196 62.72067l57.007866 0l0 57.007877l-57.007866 0z" fill-rule="evenodd"></path><path fill="#000000" d="m149.80634 96.024605l-5.34375 0l0 -1.046875l2.1875 0l0 -6.21875l-2.03125 1.109375l-0.421875 -0.96875l2.703125 -1.421875l1.015625 0l0 7.5l1.890625 0l0 1.046875z" fill-rule="nonzero"></path><path fill="#ead1dc" d="m6.4819555 118.72067l57.007874 0l0 57.007874l-57.007874 0z" fill-rule="evenodd"></path><path stroke="#000000" stroke-width="1.0" stroke-linejoin="round" stroke-linecap="butt" d="m6.4819555 118.72067l57.007874 0l0 57.007874l-57.007874 0z" fill-rule="evenodd"></path><path fill="#000000" d="m38.07196 147.77461q0 0.96875 -0.203125 1.78125q-0.1875 0.796875 -0.578125 1.375q-0.390625 0.578125 -0.984375 0.890625q-0.59375 0.3125 -1.390625 0.3125q-0.671875 0 -1.234375 -0.25q-0.5625 -0.25 -0.96875 -0.78125q-0.390625 -0.546875 -0.609375 -1.375q-0.2031269 -0.828125 -0.2031269 -1.953125q0 -0.96875 0.1875019 -1.78125q0.203125 -0.8125 0.59375 -1.375q0.390625 -0.578125 0.984375 -0.890625q0.59375 -0.328125 1.390625 -0.328125q0.671875 0 1.234375 0.265625q0.5625 0.25 0.953125 0.796875q0.40625 0.53125 0.609375 1.359375q0.21875 0.828125 0.21875 1.953125zm-1.140625 0.046875q0 -0.234375 -0.015625 -0.453125q-0.015625 -0.21875 -0.03125 -0.421875l-3.609375 2.671875q0.109375 0.34375 0.25 0.640625q0.15625 0.28125 0.359375 0.484375q0.21875 0.203125 0.484375 0.3125q0.265625 0.109375 0.609375 0.109375q0.453125 0 0.8125 -0.203125q0.359375 -0.21875 0.609375 -0.640625q0.265625 -0.421875 0.390625 -1.046875q0.140625 -0.640625 0.140625 -1.453125zm-3.890625 -0.078125q0 0.1875 0 0.390625q0 0.203125 0.03125 0.390625l3.59375 -2.65625q-0.09375 -0.328125 -0.25 -0.59375q-0.140625 -0.28125 -0.359375 -0.484375q-0.203125 -0.203125 -0.46875 -0.3125q-0.265625 -0.109375 -0.609375 -0.109375q-0.4375 0 -0.796875 0.21875q-0.359375 0.21875 -0.625 0.640625q-0.25 0.421875 -0.390625 1.0625q-0.125 0.625 -0.125 1.453125z" fill-rule="nonzero"></path><path fill="#ead1dc" d="m62.481956 118.72067l57.007874 0l0 57.007874l-57.007874 0z" fill-rule="evenodd"></path><path stroke="#000000" stroke-width="1.0" stroke-linejoin="round" stroke-linecap="butt" d="m62.481956 118.72067l57.007874 0l0 57.007874l-57.007874 0z" fill-rule="evenodd"></path><path fill="#000000" d="m93.806335 152.02461l-5.34375 0l0 -1.046875l2.1875 0l0 -6.21875l-2.03125 1.109375l-0.421875 -0.96875l2.703125 -1.421875l1.015625 0l0 7.5l1.890625 0l0 1.046875z" fill-rule="nonzero"></path><path fill="#ead1dc" d="m118.48196 118.72067l57.007866 0l0 57.007874l-57.007866 0z" fill-rule="evenodd"></path><path stroke="#000000" stroke-width="1.0" stroke-linejoin="round" stroke-linecap="butt" d="m118.48196 118.72067l57.007866 0l0 57.007874l-57.007866 0z" fill-rule="evenodd"></path><path fill="#000000" d="m150.07196 147.77461q0 0.96875 -0.203125 1.78125q-0.1875 0.796875 -0.578125 1.375q-0.390625 0.578125 -0.984375 0.890625q-0.59375 0.3125 -1.390625 0.3125q-0.671875 0 -1.234375 -0.25q-0.5625 -0.25 -0.96875 -0.78125q-0.390625 -0.546875 -0.609375 -1.375q-0.203125 -0.828125 -0.203125 -1.953125q0 -0.96875 0.1875 -1.78125q0.203125 -0.8125 0.59375 -1.375q0.390625 -0.578125 0.984375 -0.890625q0.59375 -0.328125 1.390625 -0.328125q0.671875 0 1.234375 0.265625q0.5625 0.25 0.953125 0.796875q0.40625 0.53125 0.609375 1.359375q0.21875 0.828125 0.21875 1.953125zm-1.140625 0.046875q0 -0.234375 -0.015625 -0.453125q-0.015625 -0.21875 -0.03125 -0.421875l-3.609375 2.671875q0.109375 0.34375 0.25 0.640625q0.15625 0.28125 0.359375 0.484375q0.21875 0.203125 0.484375 0.3125q0.265625 0.109375 0.609375 0.109375q0.453125 0 0.8125 -0.203125q0.359375 -0.21875 0.609375 -0.640625q0.265625 -0.421875 0.390625 -1.046875q0.140625 -0.640625 0.140625 -1.453125zm-3.890625 -0.078125q0 0.1875 0 0.390625q0 0.203125 0.03125 0.390625l3.59375 -2.65625q-0.09375 -0.328125 -0.25 -0.59375q-0.140625 -0.28125 -0.359375 -0.484375q-0.203125 -0.203125 -0.46875 -0.3125q-0.265625 -0.109375 -0.609375 -0.109375q-0.4375 0 -0.796875 0.21875q-0.359375 0.21875 -0.625 0.640625q-0.25 0.421875 -0.390625 1.0625q-0.125 0.625 -0.125 1.453125z" fill-rule="nonzero"></path></g></svg>
