<?xml version="1.0" standalone="yes"?>

<svg height="150px" version="1.1" viewBox="0.0 0.0 100.0 100.0" fill="none" stroke="none" stroke-linecap="square" stroke-miterlimit="10" xmlns="http://www.w3.org/2000/svg" xmlns:xlink="http://www.w3.org/1999/xlink"><desc>A 3x3 matrix. Each cell contains a different one-digit integer.</desc><clipPath id="p.0"><path d="m0 0l100.0 0l0 100.0l-100.0 0l0 -100.0z" clip-rule="nonzero"></path></clipPath><g clip-path="url(#p.0)"><path fill="#000000" fill-opacity="0.0" d="m0 0l100.0 0l0 100.0l-100.0 0z" fill-rule="evenodd"></path><path fill="#cfe2f3" d="m3.051985 4.1212654l30.196032 0l0 26.63744l-30.196032 0z" fill-rule="evenodd"></path><path stroke="#000000" stroke-width="1.0" stroke-linejoin="round" stroke-linecap="butt" d="m3.051985 4.1212654l30.196032 0l0 26.63744l-30.196032 0z" fill-rule="evenodd"></path><path fill="#000000" d="m20.829817 19.521235q0 0.625 -0.28125 1.15625q-0.265625 0.515625 -0.75 0.890625q-0.46875 0.375 -1.1249981 0.578125q-0.640625 0.203125 -1.40625 0.203125q-0.1875 0 -0.40625 -0.015625q-0.21875 0 -0.4375 -0.015625q-0.203125 -0.015625 -0.40625 -0.03125q-0.20312595 -0.015625 -0.37500095 -0.046875l0 -1.03125q0.35937595 0.09375 0.81250095 0.140625q0.453125 0.03125 0.90625 0.03125q0.515625 0 0.9375 -0.125q0.421875 -0.125 0.703125 -0.359375q0.2968731 -0.234375 0.4531231 -0.5625q0.15625 -0.328125 0.15625 -0.734375q0 -0.796875 -0.5781231 -1.15625q-0.5625 -0.359375 -1.625 -0.359375l-1.609376 0l0 -4.34375l4.578124 0l0 0.984375l-3.515623 0l0 2.390625l0.75 0q0.609375 0 1.1875 0.109375q0.5781231 0.109375 1.0312481 0.390625q0.453125 0.265625 0.71875 0.734375q0.28125 0.46875 0.28125 1.171875z" fill-rule="nonzero"></path><path fill="#cfe2f3" d="m63.261177 4.1212654l30.19603 0l0 26.63744l-30.19603 0z" fill-rule="evenodd"></path><path stroke="#000000" stroke-width="1.0" stroke-linejoin="round" stroke-linecap="butt" d="m63.261177 4.1212654l30.19603 0l0 26.63744l-30.19603 0z" fill-rule="evenodd"></path><path fill="#000000" d="m81.179634 22.239985l-5.34375 0l0 -1.046875l2.1875 0l0 -6.21875l-2.03125 1.109375l-0.421875 -0.96875l2.703125 -1.421875l1.015625 0l0 7.5l1.890625 0l0 1.046875z" fill-rule="nonzero"></path><path fill="#cfe2f3" d="m33.273678 4.1212654l30.196033 0l0 26.63744l-30.196033 0z" fill-rule="evenodd"></path><path stroke="#000000" stroke-width="1.0" stroke-linejoin="round" stroke-linecap="butt" d="m33.273678 4.1212654l30.196033 0l0 26.63744l-30.196033 0z" fill-rule="evenodd"></path><path fill="#000000" d="m51.098385 19.66186q0 0.546875 -0.234375 1.046875q-0.21875 0.484375 -0.671875 0.859375q-0.453125 0.359375 -1.140625 0.578125q-0.6875 0.203125 -1.609375 0.203125q-0.515625 0 -0.921875 -0.03125q-0.390625 -0.03125 -0.75 -0.078125l0 -1.015625q0.40625 0.078125 0.859375 0.125q0.453125 0.03125 0.921875 0.03125q0.625 0 1.078125 -0.109375q0.453125 -0.125 0.734375 -0.328125q0.296875 -0.21875 0.421875 -0.53125q0.140625 -0.3125 0.140625 -0.6875q0 -0.359375 -0.15625 -0.609375q-0.15625 -0.265625 -0.453125 -0.4375q-0.28125 -0.171875 -0.671875 -0.265625q-0.390625 -0.09375 -0.859375 -0.09375l-0.96875 0l0 -0.921875l0.984375 0q0.375 0 0.6875 -0.09375q0.328125 -0.109375 0.546875 -0.296875q0.234375 -0.1875 0.34375 -0.46875q0.125 -0.28125 0.125 -0.625q0 -0.6875 -0.421875 -1.0q-0.40625 -0.3125 -1.21875 -0.3125q-0.421875 0 -0.890625 0.09375q-0.453125 0.078125 -0.96875 0.25l0 -1.0q0.21875 -0.078125 0.46875 -0.140625q0.25 -0.0625 0.5 -0.09375q0.25 -0.046875 0.5 -0.0625q0.25 -0.03125 0.46875 -0.03125q0.6875 0 1.203125 0.15625q0.515625 0.140625 0.859375 0.421875q0.34375 0.265625 0.515625 0.65625q0.171875 0.390625 0.171875 0.875q0 0.734375 -0.375 1.234375q-0.375 0.484375 -1.015625 0.78125q0.328125 0.046875 0.640625 0.203125q0.328125 0.15625 0.578125 0.40625q0.265625 0.234375 0.421875 0.578125q0.15625 0.328125 0.15625 0.734375z" fill-rule="nonzero"></path><path fill="#cfe2f3" d="m3.051985 30.620813l30.196032 0l0 26.637438l-30.196032 0z" fill-rule="evenodd"></path><path stroke="#000000" stroke-width="1.0" stroke-linejoin="round" stroke-linecap="butt" d="m3.051985 30.620813l30.196032 0l0 26.637438l-30.196032 0z" fill-rule="evenodd"></path><path fill="#000000" d="m21.048567 46.598907q0 0.546875 -0.21875 0.96875q-0.21875 0.421875 -0.625 0.703125q-0.390625 0.28125 -0.9375 0.4375q-0.5312481 0.140625 -1.1718731 0.140625q-0.6875 0 -1.21875 -0.140625q-0.53125 -0.15625 -0.89062595 -0.4375q-0.359375 -0.28125 -0.546875 -0.65625q-0.171875 -0.390625 -0.171875 -0.859375q0 -0.78125 0.421875 -1.34375q0.43750095 -0.5625 1.359376 -1.03125q-0.84375 -0.421875 -1.234376 -0.9375q-0.375 -0.515625 -0.375 -1.1875q0 -0.40625 0.171875 -0.796875q0.171875 -0.390625 0.51562595 -0.6875q0.34375 -0.296875 0.84375 -0.46875q0.515625 -0.1875 1.21875 -0.1875q0.65625 0 1.1562481 0.140625q0.5 0.140625 0.828125 0.40625q0.34375 0.25 0.515625 0.625q0.171875 0.375 0.171875 0.828125q0 0.734375 -0.421875 1.265625q-0.40625 0.515625 -1.171875 0.90625q0.375 0.1875 0.703125 0.421875q0.328125 0.21875 0.5625 0.5q0.25 0.28125 0.375 0.625q0.140625 0.34375 0.140625 0.765625zm-1.34375 -4.390625q0 -0.578125 -0.40625 -0.859375q-0.4062481 -0.28125 -1.1562481 -0.28125q-0.71875 0 -1.125 0.28125q-0.40625 0.265625 -0.40625 0.828125q0 0.25 0.09375 0.46875q0.09375 0.21875 0.296875 0.40625q0.21875 0.1875 0.515625 0.375q0.3125 0.171875 0.734375 0.359375q0.734375 -0.34375 1.0937481 -0.71875q0.359375 -0.375 0.359375 -0.859375zm0.109375 4.484375q0 -0.25 -0.078125 -0.46875q-0.078125 -0.234375 -0.28125 -0.453125q-0.203125 -0.21875 -0.5468731 -0.4375q-0.328125 -0.21875 -0.84375 -0.453125q-0.453125 0.203125 -0.75 0.421875q-0.296875 0.203125 -0.484375 0.421875q-0.1875 0.21875 -0.265625 0.453125q-0.078125 0.234375 -0.078125 0.5q0 0.296875 0.125 0.515625q0.125 0.21875 0.34375 0.375q0.21875 0.15625 0.53125 0.234375q0.3125 0.078125 0.65625 0.078125q0.359375 0 0.65625 -0.0625q0.3124981 -0.078125 0.5312481 -0.21875q0.21875 -0.140625 0.34375 -0.359375q0.140625 -0.234375 0.140625 -0.546875z" fill-rule="nonzero"></path><path fill="#cfe2f3" d="m63.261177 30.620813l30.19603 0l0 26.637438l-30.19603 0z" fill-rule="evenodd"></path><path stroke="#000000" stroke-width="1.0" stroke-linejoin="round" stroke-linecap="butt" d="m63.261177 30.620813l30.19603 0l0 26.637438l-30.19603 0z" fill-rule="evenodd"></path><path fill="#000000" d="m81.03901 46.020782q0 0.625 -0.28125 1.15625q-0.265625 0.515625 -0.75 0.890625q-0.46875 0.375 -1.125 0.578125q-0.640625 0.203125 -1.40625 0.203125q-0.1875 0 -0.40625 -0.015625q-0.21875 0 -0.4375 -0.015625q-0.203125 -0.015625 -0.40625 -0.03125q-0.203125 -0.015625 -0.375 -0.046875l0 -1.03125q0.359375 0.09375 0.8125 0.140625q0.453125 0.03125 0.90625 0.03125q0.515625 0 0.9375 -0.125q0.421875 -0.125 0.703125 -0.359375q0.296875 -0.234375 0.453125 -0.5625q0.15625 -0.328125 0.15625 -0.734375q0 -0.796875 -0.578125 -1.15625q-0.5625 -0.359375 -1.625 -0.359375l-1.609375 0l0 -4.34375l4.578125 0l0 0.984375l-3.515625 0l0 2.390625l0.75 0q0.609375 0 1.1875 0.109375q0.578125 0.109375 1.03125 0.390625q0.453125 0.265625 0.71875 0.734375q0.28125 0.46875 0.28125 1.171875z" fill-rule="nonzero"></path><path fill="#cfe2f3" d="m33.273678 30.620813l30.196033 0l0 26.637438l-30.196033 0z" fill-rule="evenodd"></path><path stroke="#000000" stroke-width="1.0" stroke-linejoin="round" stroke-linecap="butt" d="m33.273678 30.620813l30.196033 0l0 26.637438l-30.196033 0z" fill-rule="evenodd"></path><path fill="#000000" d="m51.27026 48.739532l-5.609375 0l0 -1.015625l2.203125 -2.1875q0.546875 -0.53125 0.875 -0.921875q0.34375 -0.390625 0.53125 -0.703125q0.1875 -0.328125 0.25 -0.609375q0.0625 -0.296875 0.0625 -0.625q0 -0.3125 -0.078125 -0.59375q-0.078125 -0.28125 -0.265625 -0.5q-0.171875 -0.21875 -0.453125 -0.34375q-0.28125 -0.125 -0.671875 -0.125q-0.53125 0 -0.984375 0.25q-0.4375 0.234375 -0.8125 0.625l-0.625 -0.75q0.484375 -0.515625 1.109375 -0.8125q0.640625 -0.3125 1.46875 -0.3125q0.5625 0 1.03125 0.171875q0.46875 0.171875 0.796875 0.5q0.34375 0.3125 0.53125 0.78125q0.1875 0.453125 0.1875 1.03125q0 0.484375 -0.140625 0.90625q-0.125 0.40625 -0.390625 0.828125q-0.265625 0.40625 -0.671875 0.859375q-0.390625 0.4375 -0.9375 0.96875l-1.546875 1.5l4.140625 0l0 1.078125z" fill-rule="nonzero"></path><path fill="#cfe2f3" d="m3.051985 57.324062l30.196032 0l0 26.63744l-30.196032 0z" fill-rule="evenodd"></path><path stroke="#000000" stroke-width="1.0" stroke-linejoin="round" stroke-linecap="butt" d="m3.051985 57.324062l30.196032 0l0 26.63744l-30.196032 0z" fill-rule="evenodd"></path><path fill="#000000" d="m21.001692 70.708405q0 1.25 -0.296875 2.140625q-0.296875 0.890625 -0.890625 1.46875q-0.578125 0.578125 -1.4531231 0.859375q-0.859375 0.265625 -2.0 0.265625l-0.70312595 0l0 -0.984375l0.78125095 0q0.84375 0 1.453125 -0.171875q0.609375 -0.171875 1.015625 -0.5q0.4062481 -0.328125 0.6249981 -0.796875q0.21875 -0.46875 0.265625 -1.078125l0.03125 -0.265625q-0.40625 0.234375 -0.9531231 0.390625q-0.53125 0.140625 -1.15625 0.140625q-0.640625 0 -1.125 -0.1875q-0.484375 -0.1875 -0.81250095 -0.53125q-0.328125 -0.34375 -0.484375 -0.796875q-0.15625 -0.46875 -0.15625 -1.015625q0 -0.59375 0.203125 -1.109375q0.21875 -0.515625 0.609375 -0.890625q0.39062595 -0.390625 0.92187595 -0.609375q0.546875 -0.21875 1.1875 -0.21875q0.640625 0 1.1718731 0.21875q0.546875 0.203125 0.9375 0.671875q0.390625 0.453125 0.609375 1.203125q0.21875 0.734375 0.21875 1.796875zm-2.984373 -2.953125q-0.359375 0 -0.671875 0.125q-0.3125 0.109375 -0.53125 0.34375q-0.21875 0.234375 -0.359375 0.578125q-0.125 0.328125 -0.125 0.765625q0 0.390625 0.09375 0.703125q0.09375 0.3125 0.28125 0.53125q0.203125 0.21875 0.515625 0.34375q0.3125 0.109375 0.75 0.109375q0.234375 0 0.484375 -0.046875q0.265625 -0.046875 0.5 -0.125q0.2499981 -0.078125 0.4687481 -0.171875q0.234375 -0.109375 0.40625 -0.21875q0 -0.84375 -0.125 -1.40625q-0.125 -0.5625 -0.359375 -0.90625q-0.234375 -0.34375 -0.5781231 -0.484375q-0.328125 -0.140625 -0.75 -0.140625z" fill-rule="nonzero"></path><path fill="#cfe2f3" d="m63.261177 57.324062l30.19603 0l0 26.63744l-30.19603 0z" fill-rule="evenodd"></path><path stroke="#000000" stroke-width="1.0" stroke-linejoin="round" stroke-linecap="butt" d="m63.261177 57.324062l30.19603 0l0 26.63744l-30.19603 0z" fill-rule="evenodd"></path><path fill="#000000" d="m81.085884 72.864655q0 0.546875 -0.234375 1.046875q-0.21875 0.484375 -0.671875 0.859375q-0.453125 0.359375 -1.140625 0.578125q-0.6875 0.203125 -1.609375 0.203125q-0.515625 0 -0.921875 -0.03125q-0.390625 -0.03125 -0.75 -0.078125l0 -1.015625q0.40625 0.078125 0.859375 0.125q0.453125 0.03125 0.921875 0.03125q0.625 0 1.078125 -0.109375q0.453125 -0.125 0.734375 -0.328125q0.296875 -0.21875 0.421875 -0.53125q0.140625 -0.3125 0.140625 -0.6875q0 -0.359375 -0.15625 -0.609375q-0.15625 -0.265625 -0.453125 -0.4375q-0.28125 -0.171875 -0.671875 -0.265625q-0.390625 -0.09375 -0.859375 -0.09375l-0.96875 0l0 -0.921875l0.984375 0q0.375 0 0.6875 -0.09375q0.328125 -0.109375 0.546875 -0.296875q0.234375 -0.1875 0.34375 -0.46875q0.125 -0.28125 0.125 -0.625q0 -0.6875 -0.421875 -1.0q-0.40625 -0.3125 -1.21875 -0.3125q-0.421875 0 -0.890625 0.09375q-0.453125 0.078125 -0.96875 0.25l0 -1.0q0.21875 -0.078125 0.46875 -0.140625q0.25 -0.0625 0.5 -0.09375q0.25 -0.046875 0.5 -0.0625q0.25 -0.03125 0.46875 -0.03125q0.6875 0 1.203125 0.15625q0.515625 0.140625 0.859375 0.421875q0.34375 0.265625 0.515625 0.65625q0.171875 0.390625 0.171875 0.875q0 0.734375 -0.375 1.234375q-0.375 0.484375 -1.015625 0.78125q0.328125 0.046875 0.640625 0.203125q0.328125 0.15625 0.578125 0.40625q0.265625 0.234375 0.421875 0.578125q0.15625 0.328125 0.15625 0.734375z" fill-rule="nonzero"></path><path fill="#cfe2f3" d="m33.273678 57.324062l30.196033 0l0 26.63744l-30.196033 0z" fill-rule="evenodd"></path><path stroke="#000000" stroke-width="1.0" stroke-linejoin="round" stroke-linecap="butt" d="m33.273678 57.324062l30.196033 0l0 26.63744l-30.196033 0z" fill-rule="evenodd"></path><path fill="#000000" d="m51.692135 73.56778l-1.453125 0l0 1.875l-1.15625 0l0 -1.875l-4.09375 0l0 -1.0l3.625 -5.625l1.625 0l0 5.625l1.453125 0l0 1.0zm-2.609375 -5.53125l-2.96875 4.53125l2.96875 0l0 -4.53125z" fill-rule="nonzero"></path></g></svg>
